STARTFONT 2.1
COMMENT $XConsortium: lubR12.bdf,v 1.9 94/04/02 16:25:16 gildea Exp $
COMMENT  (c) Copyright Bigelow & Holmes 1986, 1985. Lucida is a registered
COMMENT  trademark of Bigelow & Holmes. See LEGAL NOTICE file for terms 
COMMENT  of the license. 
COMMENT  
COMMENT  Translation to ISO8859-2 by Cub Soft;  Petr.Kolar@vslib.cz
COMMENT  
FONT -B&H-LucidaBright-Medium-R-Normal--17-120-100-100-P-96-ISO8859-2
SIZE 12 100 100
FONTBOUNDINGBOX 27 20 -10 -4
STARTPROPERTIES 20
COMMENT Begin LogicalFontDescription
FONTNAME_REGISTRY ""
FOUNDRY "B&H"
FAMILY_NAME "LucidaBright"
WEIGHT_NAME "Medium"
SLANT "R"
SETWIDTH_NAME "Normal"
ADD_STYLE_NAME ""
PIXEL_SIZE 17
POINT_SIZE 120
RESOLUTION_X 100
RESOLUTION_Y 100
SPACING "P"
AVERAGE_WIDTH 96
CHARSET_REGISTRY "ISO8859"
CHARSET_ENCODING "2"
COMMENT END LogicalFontDescription
FONT_ASCENT 15
FONT_DESCENT 4
DEFAULT_CHAR 0
COPYRIGHT "Copyright Bigelow & Holmes 1986, 1985., Copyright 1996 Cub Soft"
FACE_NAME "Lucida Bright"
ENDPROPERTIES
CHARS 191
STARTCHAR space
ENCODING 32
SWIDTH 333 0
DWIDTH 5 0
BBX 1 1 0 0
BITMAP
00
ENDCHAR
STARTCHAR exclam
ENCODING 33
SWIDTH 265 0
DWIDTH 4 0
BBX 2 13 3 0
BITMAP
40
40
40
40
40
40
80
80
80
80
00
00
40
ENDCHAR
STARTCHAR quotedbl
ENCODING 34
SWIDTH 386 0
DWIDTH 7 0
BBX 5 4 1 9
BITMAP
88
88
50
50
ENDCHAR
STARTCHAR numbersign
ENCODING 35
SWIDTH 608 0
DWIDTH 10 0
BBX 10 13 0 0
BITMAP
0980
0900
0900
0900
7fc0
1200
1200
1200
ff80
2400
2400
2400
6400
ENDCHAR
STARTCHAR dollar
ENCODING 36
SWIDTH 608 0
DWIDTH 10 0
BBX 7 14 2 -1
BITMAP
1e
f2
92
90
90
70
18
14
12
12
92
94
f8
10
ENDCHAR
STARTCHAR percent
ENCODING 37
SWIDTH 675 0
DWIDTH 11 0
BBX 11 13 0 0
BITMAP
7060
c840
8880
8900
8b00
7200
05c0
0b20
1a20
1220
2220
4220
c1c0
ENDCHAR
STARTCHAR ampersand
ENCODING 38
SWIDTH 690 0
DWIDTH 12 0
BBX 12 13 0 0
BITMAP
1e00
3300
2100
2100
3200
2c00
4cf0
8420
8220
8120
c0c0
61c0
3ef0
ENDCHAR
STARTCHAR apostrophe
ENCODING 39
SWIDTH 265 0
DWIDTH 4 0
BBX 2 5 1 8
BITMAP
c0
c0
40
40
80
ENDCHAR
STARTCHAR parenleft
ENCODING 40
SWIDTH 316 0
DWIDTH 5 0
BBX 3 16 1 -3
BITMAP
20
40
40
80
80
80
80
80
80
80
80
80
80
40
40
20
ENDCHAR
STARTCHAR parenright
ENCODING 41
SWIDTH 316 0
DWIDTH 5 0
BBX 3 16 1 -3
BITMAP
80
80
40
20
20
20
20
20
20
20
20
20
20
40
80
80
ENDCHAR
STARTCHAR asterisk
ENCODING 42
SWIDTH 470 0
DWIDTH 8 0
BBX 7 5 1 8
BITMAP
10
d2
2c
28
44
ENDCHAR
STARTCHAR plus
ENCODING 43
SWIDTH 608 0
DWIDTH 10 0
BBX 9 11 1 0
BITMAP
0800
0800
0800
0800
0800
ff80
0800
0800
0800
0800
0800
ENDCHAR
STARTCHAR comma
ENCODING 44
SWIDTH 265 0
DWIDTH 4 0
BBX 2 5 1 -3
BITMAP
c0
c0
40
40
80
ENDCHAR
STARTCHAR minus
ENCODING 45
SWIDTH 608 0
DWIDTH 10 0
BBX 10 1 0 5
BITMAP
ffc0
ENDCHAR
STARTCHAR period
ENCODING 46
SWIDTH 265 0
DWIDTH 4 0
BBX 2 1 1 0
BITMAP
c0
ENDCHAR
STARTCHAR slash
ENCODING 47
SWIDTH 512 0
DWIDTH 9 0
BBX 9 16 0 -3
BITMAP
0080
0100
0100
0200
0200
0400
0400
0800
0800
1000
1000
2000
2000
4000
4000
8000
ENDCHAR
STARTCHAR zero
ENCODING 48
SWIDTH 608 0
DWIDTH 10 0
BBX 9 13 1 0
BITMAP
3e00
4100
4100
8080
8080
8080
8080
8080
8080
8080
4100
4100
3e00
ENDCHAR
STARTCHAR one
ENCODING 49
SWIDTH 608 0
DWIDTH 10 0
BBX 5 13 3 0
BITMAP
e0
20
20
20
20
20
20
20
20
20
20
20
f8
ENDCHAR
STARTCHAR two
ENCODING 50
SWIDTH 608 0
DWIDTH 10 0
BBX 7 13 2 0
BITMAP
78
84
82
02
02
06
0c
18
30
60
40
80
fe
ENDCHAR
STARTCHAR three
ENCODING 51
SWIDTH 608 0
DWIDTH 10 0
BBX 7 13 2 0
BITMAP
f8
86
82
02
02
04
7c
06
02
02
82
c4
f8
ENDCHAR
STARTCHAR four
ENCODING 52
SWIDTH 608 0
DWIDTH 10 0
BBX 9 13 0 0
BITMAP
0200
0600
0a00
1a00
1200
2200
4200
c200
ff80
0200
0200
0200
0f80
ENDCHAR
STARTCHAR five
ENCODING 53
SWIDTH 608 0
DWIDTH 10 0
BBX 6 13 2 0
BITMAP
fc
80
80
80
f0
18
04
04
04
04
84
88
f0
ENDCHAR
STARTCHAR six
ENCODING 54
SWIDTH 608 0
DWIDTH 10 0
BBX 8 13 1 0
BITMAP
1f
23
41
80
80
bc
c2
81
81
81
41
62
3c
ENDCHAR
STARTCHAR seven
ENCODING 55
SWIDTH 608 0
DWIDTH 10 0
BBX 8 13 2 0
BITMAP
ff
03
02
06
04
08
18
10
30
20
20
40
40
ENDCHAR
STARTCHAR eight
ENCODING 56
SWIDTH 608 0
DWIDTH 10 0
BBX 8 13 1 0
BITMAP
3c
c3
81
81
c1
7e
4c
82
81
81
81
42
3c
ENDCHAR
STARTCHAR nine
ENCODING 57
SWIDTH 608 0
DWIDTH 10 0
BBX 8 13 1 0
BITMAP
3c
46
82
81
81
81
43
3d
01
01
82
c4
f8
ENDCHAR
STARTCHAR colon
ENCODING 58
SWIDTH 265 0
DWIDTH 4 0
BBX 1 9 2 0
BITMAP
80
00
00
00
00
00
00
00
80
ENDCHAR
STARTCHAR semicolon
ENCODING 59
SWIDTH 265 0
DWIDTH 4 0
BBX 1 12 2 -3
BITMAP
80
00
00
00
00
00
00
80
80
80
80
80
ENDCHAR
STARTCHAR less
ENCODING 60
SWIDTH 608 0
DWIDTH 10 0
BBX 10 11 0 0
BITMAP
0040
0180
0600
0c00
3000
c000
3000
0c00
0700
0180
0040
ENDCHAR
STARTCHAR equal
ENCODING 61
SWIDTH 608 0
DWIDTH 10 0
BBX 10 4 0 3
BITMAP
ffc0
0000
0000
ffc0
ENDCHAR
STARTCHAR greater
ENCODING 62
SWIDTH 608 0
DWIDTH 10 0
BBX 10 11 0 0
BITMAP
8000
6000
3800
0c00
0300
00c0
0300
0c00
1800
6000
8000
ENDCHAR
STARTCHAR question
ENCODING 63
SWIDTH 480 0
DWIDTH 8 0
BBX 6 13 1 0
BITMAP
f8
8c
84
04
08
08
10
20
20
20
00
00
20
ENDCHAR
STARTCHAR at
ENCODING 64
SWIDTH 873 0
DWIDTH 15 0
BBX 13 13 1 0
BITMAP
07c0
1830
3010
6788
4888
9088
9108
9318
9730
9de0
4000
6100
1e00
ENDCHAR
STARTCHAR A
ENCODING 65
SWIDTH 744 0
DWIDTH 13 0
BBX 13 13 0 0
BITMAP
0200
0600
0600
0500
0900
0880
1080
1080
3fc0
2040
2020
4020
e0f8
ENDCHAR
STARTCHAR B
ENCODING 66
SWIDTH 609 0
DWIDTH 10 0
BBX 9 13 0 0
BITMAP
ff00
2180
2080
2080
2080
2300
3f00
2300
2080
2080
2080
2180
ff00
ENDCHAR
STARTCHAR C
ENCODING 67
SWIDTH 695 0
DWIDTH 12 0
BBX 10 13 1 0
BITMAP
1fc0
30c0
4040
4000
8000
8000
8000
8000
8000
4000
4000
3040
1f80
ENDCHAR
STARTCHAR D
ENCODING 68
SWIDTH 768 0
DWIDTH 13 0
BBX 12 13 0 0
BITMAP
ff80
20c0
2020
2010
2010
2010
2010
2010
2010
2010
2020
2040
ff80
ENDCHAR
STARTCHAR E
ENCODING 69
SWIDTH 566 0
DWIDTH 10 0
BBX 10 13 0 0
BITMAP
ffc0
2040
2000
2000
2000
2100
3f00
2100
2000
2000
2040
2040
ffc0
ENDCHAR
STARTCHAR F
ENCODING 70
SWIDTH 548 0
DWIDTH 9 0
BBX 9 13 0 0
BITMAP
ff80
2080
2000
2000
2000
2100
3f00
2100
2000
2000
2000
2000
f800
ENDCHAR
STARTCHAR G
ENCODING 71
SWIDTH 732 0
DWIDTH 12 0
BBX 12 13 1 0
BITMAP
1f80
30c0
4040
4000
8000
8000
8000
81f0
8040
4040
4040
3040
1fc0
ENDCHAR
STARTCHAR H
ENCODING 72
SWIDTH 771 0
DWIDTH 13 0
BBX 13 13 0 0
BITMAP
f8f8
2020
2020
2020
2020
2020
3fe0
2020
2020
2020
2020
2020
f8f8
ENDCHAR
STARTCHAR I
ENCODING 73
SWIDTH 325 0
DWIDTH 6 0
BBX 5 13 0 0
BITMAP
f8
20
20
20
20
20
20
20
20
20
20
20
f8
ENDCHAR
STARTCHAR J
ENCODING 74
SWIDTH 422 0
DWIDTH 7 0
BBX 7 16 0 -3
BITMAP
3e
08
08
08
08
08
08
08
08
08
08
08
08
88
90
f0
ENDCHAR
STARTCHAR K
ENCODING 75
SWIDTH 708 0
DWIDTH 12 0
BBX 12 13 0 0
BITMAP
f9e0
20c0
2100
2200
2400
2800
3800
2c00
2600
2300
2180
20c0
f3f0
ENDCHAR
STARTCHAR L
ENCODING 76
SWIDTH 557 0
DWIDTH 9 0
BBX 9 13 0 0
BITMAP
f800
2000
2000
2000
2000
2000
2000
2000
2000
2000
2080
2080
ff80
ENDCHAR
STARTCHAR M
ENCODING 77
SWIDTH 860 0
DWIDTH 15 0
BBX 15 13 0 0
BITMAP
f01e
3018
2818
2828
2828
2448
2448
2248
2288
2188
2108
2108
f83e
ENDCHAR
STARTCHAR N
ENCODING 78
SWIDTH 751 0
DWIDTH 13 0
BBX 13 13 0 0
BITMAP
e0f8
3020
3020
2820
2420
2620
2220
2120
21a0
20a0
2060
2020
f820
ENDCHAR
STARTCHAR O
ENCODING 79
SWIDTH 777 0
DWIDTH 13 0
BBX 11 13 1 0
BITMAP
1f00
2080
4040
c060
8020
8020
8020
8020
8020
c060
4040
2080
1f00
ENDCHAR
STARTCHAR P
ENCODING 80
SWIDTH 573 0
DWIDTH 10 0
BBX 9 13 0 0
BITMAP
fe00
2100
2080
2080
2080
2180
2300
3e00
2000
2000
2000
2000
f800
ENDCHAR
STARTCHAR Q
ENCODING 81
SWIDTH 778 0
DWIDTH 13 0
BBX 13 16 1 -3
BITMAP
1f00
2080
4040
c040
8020
8020
8020
8020
8020
c060
4040
20c0
1f80
0180
00e0
0038
ENDCHAR
STARTCHAR R
ENCODING 82
SWIDTH 679 0
DWIDTH 11 0
BBX 11 13 0 0
BITMAP
fe00
2180
2080
2080
2080
2100
3e00
2200
2200
2100
2100
2080
f0e0
ENDCHAR
STARTCHAR S
ENCODING 83
SWIDTH 542 0
DWIDTH 9 0
BBX 7 13 1 0
BITMAP
3e
42
82
80
c0
60
18
04
02
02
82
84
f8
ENDCHAR
STARTCHAR T
ENCODING 84
SWIDTH 663 0
DWIDTH 11 0
BBX 11 13 0 0
BITMAP
ffe0
0400
0400
0400
0400
0400
0400
0400
0400
0400
0400
0400
1f00
ENDCHAR
STARTCHAR U
ENCODING 85
SWIDTH 719 0
DWIDTH 12 0
BBX 13 13 0 0
BITMAP
f8f8
2020
2020
2020
2020
2020
2020
2020
2020
2020
2020
1040
0f80
ENDCHAR
STARTCHAR V
ENCODING 86
SWIDTH 699 0
DWIDTH 12 0
BBX 12 13 0 0
BITMAP
f070
6020
2020
2040
1040
10c0
0880
0880
0d00
0500
0500
0200
0200
ENDCHAR
STARTCHAR W
ENCODING 87
SWIDTH 925 0
DWIDTH 16 0
BBX 16 13 0 0
BITMAP
f087
6182
2182
2184
21c4
1244
1248
1248
1428
0c30
0c30
0810
0810
ENDCHAR
STARTCHAR X
ENCODING 88
SWIDTH 657 0
DWIDTH 11 0
BBX 11 13 0 0
BITMAP
f8e0
3040
1080
1100
0b00
0e00
0c00
0a00
1300
3100
2080
40c0
e3e0
ENDCHAR
STARTCHAR Y
ENCODING 89
SWIDTH 678 0
DWIDTH 12 0
BBX 11 13 0 0
BITMAP
f8e0
3040
3080
1080
0900
0a00
0600
0400
0400
0400
0400
0400
1f00
ENDCHAR
STARTCHAR Z
ENCODING 90
SWIDTH 633 0
DWIDTH 11 0
BBX 8 13 1 0
BITMAP
ff
82
86
04
0c
08
10
10
20
20
41
41
ff
ENDCHAR
STARTCHAR bracketleft
ENCODING 91
SWIDTH 316 0
DWIDTH 5 0
BBX 3 16 2 -3
BITMAP
e0
80
80
80
80
80
80
80
80
80
80
80
80
80
80
e0
ENDCHAR
STARTCHAR backslash
ENCODING 92
SWIDTH 512 0
DWIDTH 9 0
BBX 9 16 0 -3
BITMAP
8000
4000
4000
2000
2000
1000
1000
0800
0800
0400
0400
0200
0200
0100
0100
0080
ENDCHAR
STARTCHAR bracketright
ENCODING 93
SWIDTH 316 0
DWIDTH 5 0
BBX 3 16 1 -3
BITMAP
e0
20
20
20
20
20
20
20
20
20
20
20
20
20
20
e0
ENDCHAR
STARTCHAR asciicircum
ENCODING 94
SWIDTH 608 0
DWIDTH 10 0
BBX 10 11 0 2
BITMAP
0400
0c00
0c00
1200
1200
3300
2100
2100
4080
4080
8040
ENDCHAR
STARTCHAR underscore
ENCODING 95
SWIDTH 500 0
DWIDTH 8 0
BBX 7 1 1 -1
BITMAP
fe
ENDCHAR
STARTCHAR grave
ENCODING 96
SWIDTH 602 0
DWIDTH 10 0
BBX 4 1 3 12
BITMAP
f0
ENDCHAR
STARTCHAR a
ENCODING 97
SWIDTH 543 0
DWIDTH 9 0
BBX 8 9 1 0
BITMAP
7c
86
82
02
3e
c2
82
c2
7f
ENDCHAR
STARTCHAR b
ENCODING 98
SWIDTH 611 0
DWIDTH 10 0
BBX 10 13 0 0
BITMAP
e000
2000
2000
2000
2f00
3080
2040
2040
2040
2040
2040
3080
2f00
ENDCHAR
STARTCHAR c
ENCODING 99
SWIDTH 509 0
DWIDTH 9 0
BBX 7 9 1 0
BITMAP
3e
42
c2
80
80
80
80
60
3e
ENDCHAR
STARTCHAR d
ENCODING 100
SWIDTH 642 0
DWIDTH 11 0
BBX 10 13 1 0
BITMAP
0700
0100
0100
0100
3d00
4300
8100
8100
8100
8100
8100
4300
3dc0
ENDCHAR
STARTCHAR e
ENCODING 101
SWIDTH 530 0
DWIDTH 9 0
BBX 7 9 1 0
BITMAP
38
44
82
82
fe
80
80
42
3c
ENDCHAR
STARTCHAR f
ENCODING 102
SWIDTH 404 0
DWIDTH 7 0
BBX 7 13 0 0
BITMAP
1e
22
22
20
fc
20
20
20
20
20
20
20
f8
ENDCHAR
STARTCHAR g
ENCODING 103
SWIDTH 571 0
DWIDTH 10 0
BBX 10 12 0 -3
BITMAP
3fc0
6300
4100
4100
4100
2200
7c00
4000
7f80
8040
c0c0
7f00
ENDCHAR
STARTCHAR h
ENCODING 104
SWIDTH 633 0
DWIDTH 11 0
BBX 11 13 0 0
BITMAP
e000
2000
2000
2000
2f00
3080
2080
2080
2080
2080
2080
2080
fbe0
ENDCHAR
STARTCHAR i
ENCODING 105
SWIDTH 307 0
DWIDTH 5 0
BBX 5 13 0 0
BITMAP
20
00
00
00
e0
20
20
20
20
20
20
20
f8
ENDCHAR
STARTCHAR j
ENCODING 106
SWIDTH 346 0
DWIDTH 6 0
BBX 5 16 0 -3
BITMAP
08
00
00
00
38
08
08
08
08
08
08
08
08
88
88
f0
ENDCHAR
STARTCHAR k
ENCODING 107
SWIDTH 599 0
DWIDTH 10 0
BBX 10 13 0 0
BITMAP
e000
2000
2000
2000
2380
2300
2600
2800
3800
2c00
2600
2300
f1c0
ENDCHAR
STARTCHAR l
ENCODING 108
SWIDTH 313 0
DWIDTH 5 0
BBX 5 13 0 0
BITMAP
e0
20
20
20
20
20
20
20
20
20
20
20
f8
ENDCHAR
STARTCHAR m
ENCODING 109
SWIDTH 946 0
DWIDTH 16 0
BBX 17 9 0 0
BITMAP
ef3c00
30c200
208200
208200
208200
208200
208200
208200
fbef80
ENDCHAR
STARTCHAR n
ENCODING 110
SWIDTH 633 0
DWIDTH 11 0
BBX 11 9 0 0
BITMAP
ef00
3080
2080
2080
2080
2080
2080
2080
fbe0
ENDCHAR
STARTCHAR o
ENCODING 111
SWIDTH 602 0
DWIDTH 10 0
BBX 9 9 1 0
BITMAP
3e00
6300
c180
8080
8080
8080
c180
6300
3e00
ENDCHAR
STARTCHAR p
ENCODING 112
SWIDTH 642 0
DWIDTH 11 0
BBX 10 12 0 -3
BITMAP
ef00
3080
2040
2040
2040
2040
2040
3080
2f00
2000
2000
f800
ENDCHAR
STARTCHAR q
ENCODING 113
SWIDTH 617 0
DWIDTH 10 0
BBX 10 12 1 -3
BITMAP
3d00
4300
8100
8100
8100
8100
8100
4300
3d00
0100
0100
07c0
ENDCHAR
STARTCHAR r
ENCODING 114
SWIDTH 440 0
DWIDTH 7 0
BBX 6 9 1 0
BITMAP
ec
34
24
20
20
20
20
20
f8
ENDCHAR
STARTCHAR s
ENCODING 115
SWIDTH 504 0
DWIDTH 9 0
BBX 6 9 1 0
BITMAP
7c
84
84
c0
30
0c
84
84
f8
ENDCHAR
STARTCHAR t
ENCODING 116
SWIDTH 392 0
DWIDTH 7 0
BBX 5 12 1 0
BITMAP
40
40
40
f8
40
40
40
40
40
40
40
38
ENDCHAR
STARTCHAR u
ENCODING 117
SWIDTH 633 0
DWIDTH 11 0
BBX 11 9 0 0
BITMAP
e380
2080
2080
2080
2080
2080
2080
2180
1ee0
ENDCHAR
STARTCHAR v
ENCODING 118
SWIDTH 545 0
DWIDTH 9 0
BBX 9 9 0 0
BITMAP
f380
6100
2100
2200
1200
1600
1400
0c00
0800
ENDCHAR
STARTCHAR w
ENCODING 119
SWIDTH 795 0
DWIDTH 14 0
BBX 14 9 0 0
BITMAP
f11c
6308
2308
2298
2490
14d0
1860
1860
1020
ENDCHAR
STARTCHAR x
ENCODING 120
SWIDTH 557 0
DWIDTH 9 0
BBX 10 9 0 0
BITMAP
f1c0
6180
3300
1a00
0c00
1600
2300
4180
e3c0
ENDCHAR
STARTCHAR y
ENCODING 121
SWIDTH 551 0
DWIDTH 9 0
BBX 9 12 0 -3
BITMAP
f380
6100
2100
2300
1200
1200
1c00
0c00
0800
0800
1000
7000
ENDCHAR
STARTCHAR z
ENCODING 122
SWIDTH 595 0
DWIDTH 10 0
BBX 8 9 1 0
BITMAP
ff
86
04
08
10
30
20
41
ff
ENDCHAR
STARTCHAR braceleft
ENCODING 123
SWIDTH 343 0
DWIDTH 6 0
BBX 4 16 1 -3
BITMAP
30
40
40
40
40
40
40
40
80
40
40
40
40
40
40
30
ENDCHAR
STARTCHAR bar
ENCODING 124
SWIDTH 241 0
DWIDTH 4 0
BBX 1 16 2 -3
BITMAP
80
80
80
80
80
80
80
80
80
80
80
80
80
80
80
80
ENDCHAR
STARTCHAR braceright
ENCODING 125
SWIDTH 343 0
DWIDTH 6 0
BBX 4 16 1 -3
BITMAP
c0
20
20
20
20
20
20
20
10
20
20
20
20
20
20
c0
ENDCHAR
STARTCHAR asciitilde
ENCODING 126
SWIDTH 608 0
DWIDTH 10 0
BBX 10 4 0 3
BITMAP
7040
9840
8440
8380
ENDCHAR
STARTCHAR nobreakspace
ENCODING 160
SWIDTH 333 0
DWIDTH 5 0
BBX 1 1 0 0
BITMAP
00
ENDCHAR
STARTCHAR Aogonek
ENCODING 161
SWIDTH 744 0
DWIDTH 13 0
BBX 13 14 0 -1
BITMAP
0200
0600
0600
0500
0900
0880
1080
1080
3fc0
2040
2020
4020
e0f8
0700
ENDCHAR
STARTCHAR breve
ENCODING 162
SWIDTH 602 0
DWIDTH 10 0
BBX 6 1 2 12
BITMAP
fc
ENDCHAR
STARTCHAR Lstroke
ENCODING 163
SWIDTH 557 0
DWIDTH 9 0
BBX 9 13 0 0
BITMAP
f800
2000
2000
2000
2800
3800
2000
e000
2000
2000
2080
2080
ff80
ENDCHAR
STARTCHAR currency
ENCODING 164
SWIDTH 608 0
DWIDTH 10 0
BBX 9 11 1 1
BITMAP
8080
dd80
7700
4100
4100
4100
4100
6300
2200
5d00
8080
ENDCHAR
STARTCHAR Lcaron
ENCODING 165
SWIDTH 557 0
DWIDTH 9 0
BBX 9 14 0 0
BITMAP
0300
fb00
2100
2100
2200
2000
2000
2000
2000
2000
2000
2080
2080
ff80
ENDCHAR
STARTCHAR Sacute
ENCODING 166
SWIDTH 542 0
DWIDTH 9 0
BBX 7 15 1 0
BITMAP
3c
00
3e
42
82
80
c0
60
18
04
02
02
82
84
f8
ENDCHAR
STARTCHAR section
ENCODING 167
SWIDTH 608 0
DWIDTH 10 0
BBX 7 16 2 -3
BITMAP
3e
c6
82
80
80
70
9c
86
82
62
1c
06
02
82
c6
fc
ENDCHAR
STARTCHAR diaeresis
ENCODING 168
SWIDTH 602 0
DWIDTH 10 0
BBX 5 1 3 12
BITMAP
d8
ENDCHAR
STARTCHAR Scaron
ENCODING 169
SWIDTH 542 0
DWIDTH 9 0
BBX 7 15 1 0
BITMAP
7e
00
3e
42
82
80
c0
60
18
04
02
02
82
84
f8
ENDCHAR
STARTCHAR Scedilla
ENCODING 170
SWIDTH 542 0
DWIDTH 9 0
BBX 7 16 1 -3
BITMAP
3e
42
82
80
c0
60
18
04
02
02
82
84
f8
30
18
38
ENDCHAR
STARTCHAR Tcaron
ENCODING 171
SWIDTH 663 0
DWIDTH 11 0
BBX 11 15 0 0
BITMAP
1f80
0000
ffe0
0400
0400
0400
0400
0400
0400
0400
0400
0400
0400
0400
1f00
ENDCHAR
STARTCHAR Zacute
ENCODING 172
SWIDTH 633 0
DWIDTH 11 0
BBX 8 15 1 0
BITMAP
3c
00
ff
82
86
04
0c
08
10
10
20
20
41
41
ff
ENDCHAR
STARTCHAR hyphen
ENCODING 173
SWIDTH 325 0
DWIDTH 6 0
BBX 4 1 1 5
BITMAP
f0
ENDCHAR
STARTCHAR Zcaron
ENCODING 174
SWIDTH 633 0
DWIDTH 11 0
BBX 8 15 1 0
BITMAP
7e
00
ff
82
86
04
0c
08
10
10
20
20
41
41
ff
ENDCHAR
STARTCHAR Zabovedot
ENCODING 175
SWIDTH 633 0
DWIDTH 11 0
BBX 8 15 1 0
BITMAP
18
00
ff
82
86
04
0c
08
10
10
20
20
41
41
ff
ENDCHAR
STARTCHAR degree
ENCODING 176
SWIDTH 259 0
DWIDTH 4 0
BBX 3 4 1 9
BITMAP
40
a0
a0
40
ENDCHAR
STARTCHAR aogonek
ENCODING 177
SWIDTH 543 0
DWIDTH 9 0
BBX 8 10 1 -1
BITMAP
7c
86
82
02
3e
c2
82
c2
7f
38
ENDCHAR
STARTCHAR ogonek
ENCODING 178
SWIDTH 602 0
DWIDTH 10 0
BBX 3 1 4 -3
BITMAP
e0
ENDCHAR
STARTCHAR lstroke
ENCODING 179
SWIDTH 313 0
DWIDTH 5 0
BBX 5 13 0 0
BITMAP
e0
20
20
20
20
38
60
e0
20
20
20
20
f8
ENDCHAR
STARTCHAR acute
ENCODING 180
SWIDTH 602 0
DWIDTH 10 0
BBX 4 1 3 12
BITMAP
f0
ENDCHAR
STARTCHAR lcaron
ENCODING 181
SWIDTH 360 0
DWIDTH 6 0
BBX 6 14 0 0
BITMAP
0c
ec
24
24
28
20
20
20
20
20
20
20
20
f8
ENDCHAR
STARTCHAR sacute
ENCODING 182
SWIDTH 504 0
DWIDTH 9 0
BBX 6 11 1 0
BITMAP
78
00
7c
84
84
c0
30
0c
84
84
f8
ENDCHAR
STARTCHAR caron
ENCODING 183
SWIDTH 602 0
DWIDTH 10 0
BBX 6 1 2 12
BITMAP
fc
ENDCHAR
STARTCHAR cedilla
ENCODING 184
SWIDTH 602 0
DWIDTH 10 0
BBX 3 3 4 -3
BITMAP
c0
60
e0
ENDCHAR
STARTCHAR scaron
ENCODING 185
SWIDTH 504 0
DWIDTH 9 0
BBX 6 11 1 0
BITMAP
fc
00
7c
84
84
c0
30
0c
84
84
f8
ENDCHAR
STARTCHAR scedilla
ENCODING 186
SWIDTH 504 0
DWIDTH 9 0
BBX 6 12 1 -3
BITMAP
7c
84
84
c0
30
0c
84
84
f8
60
30
70
ENDCHAR
STARTCHAR tcaron
ENCODING 187
SWIDTH 392 0
DWIDTH 7 0
BBX 5 15 1 0
BITMAP
18
18
08
48
50
40
f8
40
40
40
40
40
40
40
38
ENDCHAR
STARTCHAR zacute
ENCODING 188
SWIDTH 595 0
DWIDTH 10 0
BBX 8 11 1 0
BITMAP
3c
00
ff
86
04
08
10
30
20
41
ff
ENDCHAR
STARTCHAR doubleacute
ENCODING 189
SWIDTH 602 0
DWIDTH 10 0
BBX 5 1 3 12
BITMAP
f8
ENDCHAR
STARTCHAR zcaron
ENCODING 190
SWIDTH 595 0
DWIDTH 10 0
BBX 8 11 1 0
BITMAP
7e
00
ff
86
04
08
10
30
20
41
ff
ENDCHAR
STARTCHAR zabovedot
ENCODING 191
SWIDTH 595 0
DWIDTH 10 0
BBX 8 11 1 0
BITMAP
18
00
ff
86
04
08
10
30
20
41
ff
ENDCHAR
STARTCHAR Racute
ENCODING 192
SWIDTH 679 0
DWIDTH 11 0
BBX 11 15 0 0
BITMAP
1e00
0000
fe00
2180
2080
2080
2080
2100
3e00
2200
2200
2100
2100
2080
f0e0
ENDCHAR
STARTCHAR Aacute
ENCODING 193
SWIDTH 744 0
DWIDTH 13 0
BBX 13 15 0 0
BITMAP
0780
0000
0200
0600
0600
0500
0900
0880
1080
1080
3fc0
2040
2020
4020
e0f8
ENDCHAR
STARTCHAR Acircumflex
ENCODING 194
SWIDTH 744 0
DWIDTH 13 0
BBX 13 15 0 0
BITMAP
1f80
0000
0200
0600
0600
0500
0900
0880
1080
1080
3fc0
2040
2020
4020
e0f8
ENDCHAR
STARTCHAR Abreve
ENCODING 195
SWIDTH 744 0
DWIDTH 13 0
BBX 13 15 0 0
BITMAP
1f80
0000
0200
0600
0600
0500
0900
0880
1080
1080
3fc0
2040
2020
4020
e0f8
ENDCHAR
STARTCHAR Adiaeresis
ENCODING 196
SWIDTH 744 0
DWIDTH 13 0
BBX 13 15 0 0
BITMAP
0d80
0000
0200
0600
0600
0500
0900
0880
1080
1080
3fc0
2040
2020
4020
e0f8
ENDCHAR
STARTCHAR Lacute
ENCODING 197
SWIDTH 557 0
DWIDTH 9 0
BBX 9 15 0 0
BITMAP
7800
0000
f800
2000
2000
2000
2000
2000
2000
2000
2000
2000
2080
2080
ff80
ENDCHAR
STARTCHAR Cacute
ENCODING 198
SWIDTH 695 0
DWIDTH 12 0
BBX 10 15 1 0
BITMAP
0f00
0000
1fc0
30c0
4040
4000
8000
8000
8000
8000
8000
4000
4000
3040
1f80
ENDCHAR
STARTCHAR Ccedilla
ENCODING 199
SWIDTH 695 0
DWIDTH 12 0
BBX 10 16 1 -3
BITMAP
1fc0
30c0
4040
4000
8000
8000
8000
8000
8000
4000
4000
3040
1f80
0400
0600
0e00
ENDCHAR
STARTCHAR Ccaron
ENCODING 200
SWIDTH 695 0
DWIDTH 12 0
BBX 10 15 1 0
BITMAP
1f80
0000
1fc0
30c0
4040
4000
8000
8000
8000
8000
8000
4000
4000
3040
1f80
ENDCHAR
STARTCHAR Eacute
ENCODING 201
SWIDTH 566 0
DWIDTH 10 0
BBX 10 15 0 0
BITMAP
1e00
0000
ffc0
2040
2000
2000
2000
2100
3f00
2100
2000
2000
2040
2040
ffc0
ENDCHAR
STARTCHAR Eogonek
ENCODING 202
SWIDTH 566 0
DWIDTH 10 0
BBX 10 14 0 -1
BITMAP
ffc0
2040
2000
2000
2000
2100
3f00
2100
2000
2000
2040
2040
ffc0
1c00
ENDCHAR
STARTCHAR Ediaeresis
ENCODING 203
SWIDTH 566 0
DWIDTH 10 0
BBX 10 15 0 0
BITMAP
1b00
0000
ffc0
2040
2000
2000
2000
2100
3f00
2100
2000
2000
2040
2040
ffc0
ENDCHAR
STARTCHAR Ecaron
ENCODING 204
SWIDTH 566 0
DWIDTH 10 0
BBX 10 15 0 0
BITMAP
3f00
0000
ffc0
2040
2000
2000
2000
2100
3f00
2100
2000
2000
2040
2040
ffc0
ENDCHAR
STARTCHAR Iacute
ENCODING 205
SWIDTH 325 0
DWIDTH 6 0
BBX 5 15 0 0
BITMAP
78
00
f8
20
20
20
20
20
20
20
20
20
20
20
f8
ENDCHAR
STARTCHAR Icircumflex
ENCODING 206
SWIDTH 325 0
DWIDTH 6 0
BBX 6 15 1 0
BITMAP
fc
00
7c
10
10
10
10
10
10
10
10
10
10
10
7c
ENDCHAR
STARTCHAR Dcaron
ENCODING 207
SWIDTH 768 0
DWIDTH 13 0
BBX 12 15 0 0
BITMAP
1f80
0000
ff80
20c0
2020
2010
2010
2010
2010
2010
2010
2010
2020
2040
ff80
ENDCHAR
STARTCHAR Dstroke
ENCODING 208
SWIDTH 768 0
DWIDTH 13 0
BBX 12 13 0 0
BITMAP
ff80
20c0
2020
2010
2010
2010
fc10
2010
2010
2010
2020
2040
ff80
ENDCHAR
STARTCHAR Nacute
ENCODING 209
SWIDTH 751 0
DWIDTH 13 0
BBX 13 15 0 0
BITMAP
0780
0000
e0f8
3020
3020
2820
2420
2620
2220
2120
21a0
20a0
2060
2020
f820
ENDCHAR
STARTCHAR Ncaron
ENCODING 210
SWIDTH 751 0
DWIDTH 13 0
BBX 13 15 0 0
BITMAP
0fc0
0000
e0f8
3020
3020
2820
2420
2620
2220
2120
21a0
20a0
2060
2020
f820
ENDCHAR
STARTCHAR Oacute
ENCODING 211
SWIDTH 777 0
DWIDTH 13 0
BBX 11 15 1 0
BITMAP
0f00
0000
1f00
2080
4040
c060
8020
8020
8020
8020
8020
c060
4040
2080
1f00
ENDCHAR
STARTCHAR Ocircumflex
ENCODING 212
SWIDTH 777 0
DWIDTH 13 0
BBX 11 15 1 0
BITMAP
3f00
0000
1f00
2080
4040
c060
8020
8020
8020
8020
8020
c060
4040
2080
1f00
ENDCHAR
STARTCHAR Odoubleacute
ENCODING 213
SWIDTH 777 0
DWIDTH 13 0
BBX 11 15 1 0
BITMAP
1f00
0000
1f00
2080
4040
c060
8020
8020
8020
8020
8020
c060
4040
2080
1f00
ENDCHAR
STARTCHAR Odiaeresis
ENCODING 214
SWIDTH 777 0
DWIDTH 13 0
BBX 11 15 1 0
BITMAP
1b00
0000
1f00
2080
4040
c060
8020
8020
8020
8020
8020
c060
4040
2080
1f00
ENDCHAR
STARTCHAR multiply
ENCODING 215
SWIDTH 608 0
DWIDTH 10 0
BBX 10 11 0 0
BITMAP
8040
4080
2100
3300
1e00
0c00
1e00
1200
2100
4080
8040
ENDCHAR
STARTCHAR Rcaron
ENCODING 216
SWIDTH 679 0
DWIDTH 11 0
BBX 11 15 0 0
BITMAP
3f00
0000
fe00
2180
2080
2080
2080
2100
3e00
2200
2200
2100
2100
2080
f0e0
ENDCHAR
STARTCHAR Uring
ENCODING 217
SWIDTH 719 0
DWIDTH 12 0
BBX 13 16 0 0
BITMAP
0700
0700
0000
f8f8
2020
2020
2020
2020
2020
2020
2020
2020
2020
2020
1040
0f80
ENDCHAR
STARTCHAR Uacute
ENCODING 218
SWIDTH 719 0
DWIDTH 12 0
BBX 13 15 0 0
BITMAP
0780
0000
f8f8
2020
2020
2020
2020
2020
2020
2020
2020
2020
2020
1040
0f80
ENDCHAR
STARTCHAR Udoubleacute
ENCODING 219
SWIDTH 719 0
DWIDTH 12 0
BBX 13 15 0 0
BITMAP
0f80
0000
f8f8
2020
2020
2020
2020
2020
2020
2020
2020
2020
2020
1040
0f80
ENDCHAR
STARTCHAR Udiaeresis
ENCODING 220
SWIDTH 719 0
DWIDTH 12 0
BBX 13 15 0 0
BITMAP
0d80
0000
f8f8
2020
2020
2020
2020
2020
2020
2020
2020
2020
2020
1040
0f80
ENDCHAR
STARTCHAR Yacute
ENCODING 221
SWIDTH 678 0
DWIDTH 12 0
BBX 11 15 0 0
BITMAP
0f00
0000
f8e0
3040
3080
1080
0900
0a00
0600
0400
0400
0400
0400
0400
1f00
ENDCHAR
STARTCHAR Tcedilla
ENCODING 222
SWIDTH 663 0
DWIDTH 11 0
BBX 11 16 0 -3
BITMAP
ffe0
0400
0400
0400
0400
0400
0400
0400
0400
0400
0400
0400
1f00
0c00
0600
0e00
ENDCHAR
STARTCHAR ssharp
ENCODING 223
SWIDTH 614 0
DWIDTH 10 0
BBX 11 13 0 0
BITMAP
1f00
3180
2080
2180
2200
2200
2300
2180
20c0
2020
2020
2220
fbc0
ENDCHAR
STARTCHAR racute
ENCODING 224
SWIDTH 440 0
DWIDTH 7 0
BBX 6 11 1 0
BITMAP
78
00
ec
34
24
20
20
20
20
20
f8
ENDCHAR
STARTCHAR aacute
ENCODING 225
SWIDTH 543 0
DWIDTH 9 0
BBX 8 11 1 0
BITMAP
3c
00
7c
86
82
02
3e
c2
82
c2
7f
ENDCHAR
STARTCHAR acircumflex
ENCODING 226
SWIDTH 543 0
DWIDTH 9 0
BBX 8 11 1 0
BITMAP
7e
00
7c
86
82
02
3e
c2
82
c2
7f
ENDCHAR
STARTCHAR abreve
ENCODING 227
SWIDTH 543 0
DWIDTH 9 0
BBX 8 11 1 0
BITMAP
7e
00
7c
86
82
02
3e
c2
82
c2
7f
ENDCHAR
STARTCHAR adiaeresis
ENCODING 228
SWIDTH 543 0
DWIDTH 9 0
BBX 8 11 1 0
BITMAP
6c
00
7c
86
82
02
3e
c2
82
c2
7f
ENDCHAR
STARTCHAR lacute
ENCODING 229
SWIDTH 313 0
DWIDTH 5 0
BBX 5 15 0 0
BITMAP
f0
00
e0
20
20
20
20
20
20
20
20
20
20
20
f8
ENDCHAR
STARTCHAR cacute
ENCODING 230
SWIDTH 509 0
DWIDTH 9 0
BBX 7 11 1 0
BITMAP
3c
00
3e
42
c2
80
80
80
80
60
3e
ENDCHAR
STARTCHAR ccedilla
ENCODING 231
SWIDTH 509 0
DWIDTH 9 0
BBX 7 12 1 -3
BITMAP
3e
42
c2
80
80
80
80
60
3e
10
18
38
ENDCHAR
STARTCHAR ccaron
ENCODING 232
SWIDTH 509 0
DWIDTH 9 0
BBX 7 11 1 0
BITMAP
7e
00
3e
42
c2
80
80
80
80
60
3e
ENDCHAR
STARTCHAR eacute
ENCODING 233
SWIDTH 530 0
DWIDTH 9 0
BBX 7 11 1 0
BITMAP
3c
00
38
44
82
82
fe
80
80
42
3c
ENDCHAR
STARTCHAR eogonek
ENCODING 234
SWIDTH 530 0
DWIDTH 9 0
BBX 7 10 1 -1
BITMAP
38
44
82
82
fe
80
80
42
3c
38
ENDCHAR
STARTCHAR ediaeresis
ENCODING 235
SWIDTH 530 0
DWIDTH 9 0
BBX 7 11 1 0
BITMAP
6c
00
38
44
82
82
fe
80
80
42
3c
ENDCHAR
STARTCHAR ecaron
ENCODING 236
SWIDTH 530 0
DWIDTH 9 0
BBX 7 11 1 0
BITMAP
7e
00
38
44
82
82
fe
80
80
42
3c
ENDCHAR
STARTCHAR iacute
ENCODING 237
SWIDTH 307 0
DWIDTH 5 0
BBX 5 11 0 0
BITMAP
78
00
e0
20
20
20
20
20
20
20
f8
ENDCHAR
STARTCHAR icircumflex
ENCODING 238
SWIDTH 307 0
DWIDTH 5 0
BBX 6 11 1 0
BITMAP
fc
00
70
10
10
10
10
10
10
10
7c
ENDCHAR
STARTCHAR dcaron
ENCODING 239
SWIDTH 720 0
DWIDTH 12 0
BBX 11 14 1 0
BITMAP
0060
0760
0120
0120
0140
3d00
4300
8100
8100
8100
8100
8100
4300
3dc0
ENDCHAR
STARTCHAR dstroke
ENCODING 240
SWIDTH 642 0
DWIDTH 11 0
BBX 10 13 1 0
BITMAP
0700
0100
07c0
0100
3d00
4300
8100
8100
8100
8100
8100
4300
3dc0
ENDCHAR
STARTCHAR nacute
ENCODING 241
SWIDTH 633 0
DWIDTH 11 0
BBX 11 11 0 0
BITMAP
1e00
0000
ef00
3080
2080
2080
2080
2080
2080
2080
fbe0
ENDCHAR
STARTCHAR ncaron
ENCODING 242
SWIDTH 633 0
DWIDTH 11 0
BBX 11 11 0 0
BITMAP
3f00
0000
ef00
3080
2080
2080
2080
2080
2080
2080
fbe0
ENDCHAR
STARTCHAR oacute
ENCODING 243
SWIDTH 602 0
DWIDTH 10 0
BBX 9 11 1 0
BITMAP
1e00
0000
3e00
6300
c180
8080
8080
8080
c180
6300
3e00
ENDCHAR
STARTCHAR ocircumflex
ENCODING 244
SWIDTH 602 0
DWIDTH 10 0
BBX 9 11 1 0
BITMAP
7e00
0000
3e00
6300
c180
8080
8080
8080
c180
6300
3e00
ENDCHAR
STARTCHAR odoubleacute
ENCODING 245
SWIDTH 602 0
DWIDTH 10 0
BBX 9 11 1 0
BITMAP
3e00
0000
3e00
6300
c180
8080
8080
8080
c180
6300
3e00
ENDCHAR
STARTCHAR odiaeresis
ENCODING 246
SWIDTH 602 0
DWIDTH 10 0
BBX 9 11 1 0
BITMAP
3600
0000
3e00
6300
c180
8080
8080
8080
c180
6300
3e00
ENDCHAR
STARTCHAR division
ENCODING 247
SWIDTH 608 0
DWIDTH 10 0
BBX 9 9 1 0
BITMAP
0800
0000
0000
0000
ff80
0000
0000
0000
0800
ENDCHAR
STARTCHAR rcaron
ENCODING 248
SWIDTH 440 0
DWIDTH 7 0
BBX 6 11 1 0
BITMAP
fc
00
ec
34
24
20
20
20
20
20
f8
ENDCHAR
STARTCHAR uring
ENCODING 249
SWIDTH 633 0
DWIDTH 11 0
BBX 11 12 0 0
BITMAP
1c00
1c00
0000
e380
2080
2080
2080
2080
2080
2080
2180
1ee0
ENDCHAR
STARTCHAR uacute
ENCODING 250
SWIDTH 633 0
DWIDTH 11 0
BBX 11 11 0 0
BITMAP
0f00
0000
e380
2080
2080
2080
2080
2080
2080
2180
1ee0
ENDCHAR
STARTCHAR udoubleacute
ENCODING 251
SWIDTH 633 0
DWIDTH 11 0
BBX 11 11 0 0
BITMAP
3e00
0000
e380
2080
2080
2080
2080
2080
2080
2180
1ee0
ENDCHAR
STARTCHAR udiaeresis
ENCODING 252
SWIDTH 633 0
DWIDTH 11 0
BBX 11 11 0 0
BITMAP
1b00
0000
e380
2080
2080
2080
2080
2080
2080
2180
1ee0
ENDCHAR
STARTCHAR yacute
ENCODING 253
SWIDTH 551 0
DWIDTH 9 0
BBX 9 14 0 -3
BITMAP
1e00
0000
f380
6100
2100
2300
1200
1200
1c00
0c00
0800
0800
1000
7000
ENDCHAR
STARTCHAR tcedilla
ENCODING 254
SWIDTH 392 0
DWIDTH 7 0
BBX 5 15 1 -3
BITMAP
40
40
40
f8
40
40
40
40
40
40
40
38
60
30
70
ENDCHAR
STARTCHAR abovedot
ENCODING 255
SWIDTH 602 0
DWIDTH 10 0
BBX 2 1 4 12
BITMAP
c0
ENDCHAR
ENDFONT
